<svg width="43" height="552" viewBox="0 0 43 552" fill="none" xmlns="http://www.w3.org/2000/svg">
<path d="M36.2073 551.931L1.30003 551.577L1.51409 530.51L5.2639 530.548L5.09279 547.388L16.8876 547.508L17.0477 531.758L20.7975 531.796L20.6374 547.546L32.5005 547.666L32.6743 530.553L36.4242 530.591L36.2073 551.931ZM1.60606 521.459L31.0962 511.394L31.1004 510.985L1.82081 500.324L1.86584 495.892L36.6429 509.064L36.5986 513.428L1.56103 525.89L1.60606 521.459ZM36.8284 490.809L1.92108 490.455L2.13514 469.388L5.88495 469.426L5.71384 486.266L17.5087 486.386L17.6687 470.636L21.4185 470.675L21.2585 486.424L33.1215 486.544L33.2954 469.432L37.0452 469.47L36.8284 490.809ZM37.1198 462.123L2.21256 461.769L2.3324 449.974C2.36011 447.247 2.84874 445.013 3.79829 443.273C4.73648 441.532 6.01662 440.249 7.63872 439.425C9.26082 438.601 11.1002 438.199 13.1569 438.22C15.2136 438.241 17.0331 438.68 18.6154 439.537C20.1977 440.394 21.4345 441.696 22.3259 443.444C23.2059 445.191 23.6322 447.417 23.6047 450.122L23.5077 459.667L19.6898 459.628L19.7854 450.219C19.8043 448.356 19.5468 446.853 19.0129 445.711C18.4792 444.558 17.7149 443.721 16.7202 443.199C15.7142 442.666 14.5123 442.393 13.1147 442.379C11.717 442.364 10.4928 442.613 9.44213 443.125C8.39141 443.637 7.57615 444.464 6.99634 445.606C6.40516 446.748 6.09999 448.262 6.08082 450.148L6.00531 457.58L37.1628 457.896L37.1198 462.123ZM21.6058 445.533L37.3741 437.102L37.3242 442.011L21.5573 450.306L21.6058 445.533ZM2.48212 435.239L2.53131 430.398L18.9243 420.882L18.9284 420.473L2.7322 410.626L2.78139 405.786L23.1749 418.607L37.5605 418.754L37.5176 422.981L23.1319 422.834L2.48212 435.239ZM20.5732 372.684C24.2548 372.721 27.4297 373.418 30.0979 374.775C32.7661 376.132 34.8156 377.976 36.2465 380.309C37.6774 382.642 38.3778 385.297 38.3475 388.274C38.3173 391.251 37.5631 393.891 36.0851 396.195C34.6071 398.498 32.5205 400.301 29.8253 401.603C27.1301 402.905 23.9417 403.538 20.2601 403.5C16.5784 403.463 13.4035 402.766 10.7354 401.409C8.06719 400.052 6.01765 398.208 4.58673 395.875C3.15581 393.542 2.45548 390.887 2.48573 387.91C2.51598 384.933 3.27012 382.292 4.74814 379.989C6.22616 377.686 8.31277 375.883 11.008 374.581C13.7031 373.279 16.8916 372.646 20.5732 372.684ZM20.5316 376.774C17.509 376.744 14.9529 377.223 12.8632 378.214C10.7736 379.192 9.18601 380.534 8.10045 382.239C7.01501 383.933 6.46154 385.836 6.44007 387.95C6.41859 390.063 6.9332 391.984 7.9839 393.71C9.0347 395.426 10.5947 396.799 12.6639 397.832C14.7331 398.853 17.2791 399.379 20.3016 399.41C23.3242 399.44 25.8803 398.966 27.9699 397.987C30.0596 396.997 31.6472 395.655 32.7326 393.962C33.8182 392.257 34.3717 390.347 34.3932 388.234C34.4146 386.12 33.9 384.206 32.8492 382.491C31.7985 380.764 30.2385 379.39 28.1692 378.369C26.1001 377.337 23.5542 376.805 20.5316 376.774ZM3.47301 337.718L38.3803 338.073L38.3387 342.164L10.7378 360.907L10.7343 361.248L38.142 361.526L38.099 365.753L3.19176 365.399L3.23332 361.308L30.9031 342.497L30.9066 342.156L3.43075 341.877L3.47301 337.718ZM38.4662 329.615L3.55896 329.26L3.77302 308.193L7.52282 308.231L7.35171 325.071L19.1466 325.191L19.3066 309.442L23.0564 309.48L22.8964 325.229L34.7594 325.349L34.9333 308.237L38.6831 308.275L38.4662 329.615ZM3.88091 297.574L6.94893 297.605C7.8807 297.615 8.87324 297.795 9.92654 298.147C10.9686 298.487 11.9806 298.986 12.9626 299.644C13.9334 300.29 14.7778 301.071 15.4958 301.988L13.701 304.151C12.6856 303.425 11.6294 302.795 10.5325 302.261C9.42434 301.716 8.23962 301.437 6.97832 301.424L3.84212 301.392L3.88091 297.574ZM12.8612 272.714C11.132 272.901 9.78271 273.717 8.81343 275.161C7.84416 276.606 7.34878 278.385 7.32731 280.499C7.3116 282.044 7.54785 283.399 8.03605 284.563C8.52436 285.716 9.2027 286.621 10.0711 287.277C10.9396 287.922 11.9306 288.251 13.0442 288.262C13.9759 288.271 14.7793 288.058 15.4542 287.622C16.1179 287.174 16.6749 286.6 17.1252 285.9C17.5642 285.2 17.9296 284.465 18.2215 283.695C18.5021 282.925 18.7309 282.217 18.9079 281.571L19.8984 278.036C20.1463 277.129 20.4861 276.121 20.9179 275.012C21.3497 273.891 21.9345 272.823 22.6721 271.808C23.3985 270.781 24.3275 269.938 25.4593 269.279C26.591 268.62 27.9751 268.299 29.6113 268.316C31.4976 268.335 33.197 268.846 34.7096 269.85C36.2224 270.843 37.418 272.287 38.2965 274.183C39.1751 276.067 39.6008 278.349 39.5736 281.031C39.5482 283.531 39.1228 285.691 38.2974 287.513C37.4722 289.323 36.3327 290.743 34.8789 291.774C33.4253 292.793 31.7433 293.361 29.833 293.478L29.8773 289.115C31.1966 289.015 32.2919 288.582 33.1634 287.819C34.0236 287.043 34.6699 286.061 35.1025 284.872C35.5238 283.672 35.7415 282.379 35.7556 280.992C35.772 279.379 35.5253 277.927 35.0157 276.638C34.4947 275.348 33.7664 274.324 32.8309 273.564C31.884 272.805 30.7743 272.418 29.5016 272.406C28.3426 272.394 27.3961 272.708 26.6623 273.348C25.9285 273.989 25.329 274.835 24.8637 275.887C24.3984 276.939 23.9891 278.077 23.6358 279.301L22.3649 283.584C21.5532 286.303 20.412 288.45 18.9413 290.026C17.4707 291.602 15.5593 292.379 13.2072 292.355C11.2527 292.335 9.55362 291.789 8.10989 290.718C6.6549 289.635 5.53315 288.191 4.74461 286.388C3.94483 284.573 3.55625 282.552 3.57888 280.324C3.60175 278.075 4.02545 276.079 4.85001 274.337C5.6632 272.595 6.76814 271.22 8.16483 270.211C9.56163 269.191 11.141 268.662 12.9028 268.623L12.8612 272.714ZM39.2959 247.963L4.38861 247.608L4.50845 235.813C4.53628 233.075 5.05332 230.841 6.05957 229.113C7.05457 227.373 8.39153 226.091 10.0704 225.267C11.7494 224.443 13.6172 224.041 15.6739 224.062C17.7306 224.083 19.5955 224.523 21.2687 225.381C22.942 226.227 24.2698 227.525 25.2521 229.274C26.223 231.022 26.6947 233.254 26.6671 235.97L26.5812 244.424L22.8314 244.386L22.9159 236.068C22.935 234.193 22.6264 232.685 21.9903 231.542C21.3541 230.399 20.4875 229.566 19.3905 229.043C18.2822 228.509 17.0293 228.235 15.6316 228.221C14.234 228.207 12.9814 228.456 11.8738 228.967C10.7664 229.467 9.89442 230.288 9.25779 231.429C8.60979 232.57 8.27616 234.09 8.25688 235.988L8.18137 243.419L39.3388 243.736L39.2959 247.963ZM39.6055 217.495L4.69818 217.141L4.81803 205.346C4.84574 202.619 5.33437 200.385 6.28392 198.645C7.2221 196.904 8.50225 195.621 10.1243 194.797C11.7464 193.973 13.5858 193.571 15.6426 193.592C17.6993 193.613 19.5188 194.052 21.1011 194.909C22.6833 195.766 23.9202 197.068 24.8115 198.816C25.6916 200.563 26.1178 202.789 26.0903 205.494L25.9934 215.039L22.1754 215L22.271 205.591C22.2899 203.728 22.0324 202.225 21.4986 201.083C20.9648 199.93 20.2005 199.093 19.2058 198.571C18.1998 198.038 16.998 197.765 15.6003 197.751C14.2026 197.736 12.9785 197.985 11.9277 198.497C10.877 199.009 10.0618 199.836 9.48196 200.978C8.89078 202.12 8.58561 203.634 8.56645 205.52L8.49094 212.952L39.6484 213.268L39.6055 217.495ZM24.0914 200.905L39.8597 192.474L39.8098 197.383L24.0429 205.678L24.0914 200.905ZM22.763 157.164C26.4447 157.201 29.6196 157.898 32.2877 159.255C34.9559 160.611 37.0055 162.456 38.4364 164.789C39.8673 167.122 40.5676 169.777 40.5374 172.754C40.5071 175.731 39.753 178.371 38.275 180.675C36.7969 182.978 34.7103 184.781 32.0151 186.083C29.32 187.385 26.1316 188.018 22.4499 187.98C18.7683 187.943 15.5934 187.246 12.9252 185.889C10.2571 184.532 8.20751 182.687 6.77659 180.355C5.34568 178.022 4.64534 175.367 4.67559 172.39C4.70584 169.413 5.45998 166.772 6.938 164.469C8.41603 162.166 10.5026 160.363 13.1978 159.061C15.893 157.759 19.0814 157.126 22.763 157.164ZM22.7215 161.254C19.6989 161.224 17.1428 161.703 15.0531 162.693C12.9635 163.672 11.3759 165.014 10.2903 166.719C9.20487 168.413 8.65141 170.316 8.62993 172.43C8.60846 174.543 9.12307 176.463 10.1738 178.19C11.2246 179.905 12.7846 181.279 14.8537 182.312C16.923 183.333 19.4689 183.859 22.4915 183.889C25.5141 183.92 28.0701 183.446 30.1597 182.467C32.2495 181.477 33.837 180.135 34.9225 178.442C36.008 176.737 36.5616 174.827 36.583 172.714C36.6045 170.6 36.0898 168.686 35.039 166.971C33.9883 165.244 32.4284 163.87 30.3591 162.849C28.2899 161.817 25.7441 161.285 22.7215 161.254ZM16.5326 126.127C15.3811 126.49 14.3478 126.974 13.4325 127.579C12.5059 128.171 11.7146 128.885 11.0583 129.719C10.4022 130.542 9.89833 131.48 9.5467 132.534C9.19507 133.587 9.01285 134.744 9.00003 136.006C8.97902 138.074 9.49398 139.96 10.5449 141.664C11.5958 143.368 13.1559 144.73 15.2252 145.751C17.2945 146.772 19.8404 147.298 22.863 147.329C25.8855 147.36 28.4417 146.88 30.5314 145.89C32.6211 144.899 34.2088 143.546 35.2945 141.83C36.3802 140.114 36.934 138.176 36.9559 136.017C36.9762 134.017 36.568 132.251 35.7313 130.72C34.8832 129.177 33.6795 127.972 32.1201 127.104C30.5494 126.224 28.6959 125.773 26.5597 125.752L26.8455 124.459L26.7389 134.958L22.9891 134.92L23.1241 121.626L26.8739 121.664C29.7488 121.693 32.2424 122.332 34.3549 123.581C36.4674 124.818 38.0979 126.517 39.2465 128.676C40.3838 130.824 40.9384 133.284 40.9103 136.057C40.8788 139.148 40.124 141.856 38.6458 144.182C37.1676 146.497 35.0811 148.294 32.3861 149.573C29.6913 150.842 26.503 151.457 22.8214 151.42C20.0602 151.391 17.5811 150.997 15.3842 150.236C13.176 149.463 11.3005 148.388 9.7576 147.008C8.21472 145.629 7.03799 144.003 6.22743 142.131C5.41686 140.259 5.02295 138.204 5.04569 135.965C5.0644 134.125 5.36023 132.412 5.93318 130.826C6.49488 129.23 7.28774 127.812 8.31176 126.572C9.32452 125.321 10.534 124.282 11.9402 123.455C13.335 122.628 14.8806 122.065 16.5769 121.764L16.5326 126.127ZM40.6513 114.563L5.74406 114.209L5.8639 102.414C5.89161 99.6866 6.38024 97.4528 7.32979 95.7124C8.26798 93.9718 9.54812 92.6893 11.1702 91.8648C12.7923 91.0403 14.6317 90.6386 16.6884 90.6595C18.7451 90.6804 20.5646 91.1193 22.1469 91.9763C23.7292 92.8334 24.966 94.1358 25.8574 95.8836C26.7374 97.6312 27.1637 99.8573 27.1362 102.562L27.0392 112.107L23.2213 112.068L23.3169 102.659C23.3358 100.796 23.0783 99.293 22.5444 98.1512C22.0107 96.9979 21.2464 96.1606 20.2517 95.6391C19.2457 95.1061 18.0438 94.8325 16.6462 94.8183C15.2485 94.8041 14.0243 95.0531 12.9736 95.5651C11.9229 96.0772 11.1077 96.9042 10.5278 98.0461C9.93666 99.1879 9.63149 100.702 9.61232 102.588L9.53681 110.02L40.6943 110.336L40.6513 114.563ZM25.1373 97.9729L40.9056 89.5418L40.8557 94.4507L25.0888 102.745L25.1373 97.9729ZM40.9633 83.8617L6.05601 83.507L6.27007 62.4399L10.0199 62.478L9.84877 79.3181L21.6436 79.4379L21.8036 63.6887L25.5534 63.7268L25.3934 79.476L37.2564 79.5966L37.4303 62.4838L41.1801 62.5219L40.9633 83.8617ZM15.2683 35.8198C13.539 36.0067 12.1897 36.8226 11.2205 38.2674C10.2512 39.7122 9.75582 41.4913 9.73435 43.6048C9.71864 45.1502 9.95489 46.505 10.4431 47.6691C10.9314 48.8218 11.6097 49.7265 12.4781 50.3831C13.3466 51.0283 14.3376 51.3566 15.4512 51.3679C16.383 51.3773 17.1863 51.1639 17.8613 50.7275C18.5249 50.2797 19.0819 49.7058 19.5322 49.0058C19.9712 48.3057 20.3366 47.5707 20.6286 46.8009C20.9091 46.031 21.1379 45.3231 21.315 44.6771L22.3055 41.1415C22.5533 40.2349 22.8931 39.2269 23.3249 38.1176C23.7568 36.997 24.3415 35.929 25.0791 34.9137C25.8055 33.8869 26.7346 33.0441 27.8663 32.3851C28.9981 31.7261 30.3821 31.4049 32.0184 31.4215C33.9046 31.4407 35.6041 31.9523 37.1167 32.9564C38.6294 33.9491 39.825 35.3931 40.7035 37.2885C41.5822 39.1725 42.0079 41.4554 41.9806 44.137C41.9552 46.6369 41.5298 48.7975 40.7045 50.6187C39.8792 52.4286 38.7397 53.8489 37.286 54.8797C35.8324 55.899 34.1504 56.4672 32.24 56.5842L32.2843 52.2208C33.6036 52.1205 34.699 51.6884 35.5704 50.9245C36.4306 50.1491 37.077 49.167 37.5095 47.9782C37.9308 46.7778 38.1485 45.4845 38.1626 44.0982C38.179 42.4847 37.9324 41.0332 37.4227 39.7439C36.9017 38.4545 36.1735 37.43 35.2379 36.6704C34.2911 35.9108 33.1813 35.5245 31.9086 35.5115C30.7496 35.4998 29.8032 35.814 29.0694 36.4543C28.3355 37.0946 27.736 37.9409 27.2707 38.993C26.8055 40.0451 26.3962 41.1831 26.0428 42.4068L24.772 46.6896C23.9602 49.4088 22.819 51.5564 21.3484 53.1324C19.8777 54.7085 17.9663 55.4845 15.6142 55.4606C13.6597 55.4408 11.9607 54.8951 10.5169 53.8235C9.06195 52.7405 7.94019 51.2972 7.15165 49.4937C6.35187 47.6786 5.9633 45.6575 5.98593 43.4304C6.00879 41.1805 6.43249 39.1847 7.25705 37.443C8.07025 35.7012 9.17518 34.3259 10.5719 33.3174C11.9687 32.2974 13.548 31.768 15.3098 31.7291L15.2683 35.8198ZM15.5793 5.21196C13.85 5.39894 12.5007 6.21482 11.5315 7.65959C10.5622 9.10436 10.0668 10.8835 10.0453 12.997C10.0296 14.5424 10.2659 15.8972 10.7541 17.0613C11.2424 18.214 11.9207 19.1187 12.7891 19.7753C13.6576 20.4205 14.6486 20.7488 15.7622 20.7601C16.694 20.7695 17.4973 20.5561 18.1723 20.1198C18.8359 19.6719 19.3929 19.098 19.8433 18.398C20.2822 17.6979 20.6476 16.9629 20.9396 16.1931C21.2201 15.4232 21.4489 14.7153 21.626 14.0693L22.6165 10.5337C22.8643 9.62711 23.2041 8.61915 23.6359 7.50984C24.0678 6.38917 24.6525 5.32119 25.3901 4.30591C26.1165 3.27915 27.0456 2.43627 28.1773 1.77728C29.3091 1.11829 30.6931 0.797107 32.3294 0.813733C34.2156 0.832899 35.9151 1.34451 37.4277 2.34857C38.9404 3.34126 40.136 4.7853 41.0145 6.68069C41.8932 8.56471 42.3189 10.8476 42.2916 13.5292C42.2662 16.0291 41.8408 18.1897 41.0155 20.0109C40.1902 21.8208 39.0507 23.2411 37.597 24.2719C36.1434 25.2912 34.4614 25.8594 32.551 25.9764L32.5953 21.613C33.9146 21.5127 35.01 21.0807 35.8814 20.3167C36.7416 19.5413 37.388 18.5592 37.8205 17.3704C38.2418 16.1701 38.4595 14.8767 38.4736 13.4905C38.49 11.8769 38.2434 10.4255 37.7337 9.13612C37.2127 7.84667 36.4845 6.82217 35.5489 6.06263C34.6021 5.30297 33.4923 4.91667 32.2196 4.90374C31.0606 4.89196 30.1142 5.20623 29.3804 5.84653C28.6465 6.48684 28.047 7.33306 27.5817 8.38521C27.1165 9.43735 26.7072 10.5753 26.3538 11.799L25.083 16.0818C24.2712 18.801 23.13 20.9486 21.6594 22.5246C20.1887 24.1007 18.2773 24.8767 15.9252 24.8528C13.9707 24.833 12.2717 24.2873 10.8279 23.2157C9.37295 22.1327 8.25119 20.6894 7.46265 18.8859C6.66287 17.0708 6.2743 15.0497 6.29693 12.8226C6.31979 10.5727 6.7435 8.5769 7.56805 6.83519C8.38125 5.09336 9.48618 3.71815 10.8829 2.70957C12.2797 1.68961 13.859 1.16018 15.6208 1.12126L15.5793 5.21196Z" fill="white"/>
</svg>
